<svg width="213" height="44" viewBox="0 0 213 44" fill="none" xmlns="http://www.w3.org/2000/svg">
<path d="M33.966 18.004V28H36.164V23.688H40.21V28H42.408V18.004H40.21V21.84H36.164V18.004H33.966Z" fill="#34C759"/>
<path d="M46.443 18.004V28H54.031V26.152H48.641V23.702H53.485V21.994H48.641V19.852H53.919V18.004H46.443Z" fill="#34C759"/>
<path d="M60.1411 24.136L61.4431 20.468H61.4711L62.7311 24.136H60.1411ZM60.3511 18.004L56.5711 28H58.7831L59.5671 25.774H63.3051L64.0611 28H66.3431L62.6051 18.004H60.3511Z" fill="#34C759"/>
<path d="M69.3051 18.004V28H76.3751V26.152H71.5031V18.004H69.3051Z" fill="#34C759"/>
<path d="M80.6307 19.852V28H82.8287V19.852H85.8247V18.004H77.6347V19.852H80.6307Z" fill="#34C759"/>
<path d="M89.0773 18.004V28H91.2753V23.688H95.3213V28H97.5193V18.004H95.3213V21.84H91.2753V18.004H89.0773Z" fill="#34C759"/>
<path d="M104.144 24.108V28H106.342V24.164L110.052 18.004H107.602L105.278 21.952L102.94 18.004H100.476L104.144 24.108Z" fill="#34C759"/>
<path d="M120.487 24.682H118.359C118.349 25.298 118.461 25.83 118.695 26.278C118.928 26.726 119.241 27.0947 119.633 27.384C120.034 27.6733 120.491 27.8833 121.005 28.014C121.527 28.154 122.064 28.224 122.615 28.224C123.296 28.224 123.893 28.1447 124.407 27.986C124.929 27.8273 125.363 27.608 125.709 27.328C126.063 27.0387 126.329 26.698 126.507 26.306C126.684 25.914 126.773 25.4893 126.773 25.032C126.773 24.472 126.651 24.0147 126.409 23.66C126.175 23.296 125.895 23.0067 125.569 22.792C125.242 22.5773 124.911 22.4233 124.575 22.33C124.248 22.2273 123.991 22.1573 123.805 22.12C123.179 21.9613 122.671 21.8307 122.279 21.728C121.896 21.6253 121.593 21.5227 121.369 21.42C121.154 21.3173 121.009 21.2053 120.935 21.084C120.86 20.9627 120.823 20.804 120.823 20.608C120.823 20.3933 120.869 20.216 120.963 20.076C121.056 19.936 121.173 19.8193 121.313 19.726C121.462 19.6327 121.625 19.5673 121.803 19.53C121.98 19.4927 122.157 19.474 122.335 19.474C122.605 19.474 122.853 19.4973 123.077 19.544C123.31 19.5907 123.515 19.67 123.693 19.782C123.87 19.894 124.01 20.048 124.113 20.244C124.225 20.44 124.29 20.6873 124.309 20.986H126.437C126.437 20.4073 126.325 19.9173 126.101 19.516C125.886 19.1053 125.592 18.7693 125.219 18.508C124.845 18.2467 124.416 18.06 123.931 17.948C123.455 17.8267 122.955 17.766 122.433 17.766C121.985 17.766 121.537 17.8267 121.089 17.948C120.641 18.0693 120.239 18.256 119.885 18.508C119.53 18.76 119.241 19.0773 119.017 19.46C118.802 19.8333 118.695 20.2767 118.695 20.79C118.695 21.2473 118.779 21.6393 118.947 21.966C119.124 22.2833 119.353 22.5493 119.633 22.764C119.913 22.9787 120.23 23.156 120.585 23.296C120.939 23.4267 121.303 23.5387 121.677 23.632C122.041 23.7347 122.4 23.828 122.755 23.912C123.109 23.996 123.427 24.094 123.707 24.206C123.987 24.318 124.211 24.458 124.379 24.626C124.556 24.794 124.645 25.0133 124.645 25.284C124.645 25.536 124.579 25.746 124.449 25.914C124.318 26.0727 124.155 26.1987 123.959 26.292C123.763 26.3853 123.553 26.4507 123.329 26.488C123.105 26.516 122.895 26.53 122.699 26.53C122.409 26.53 122.129 26.4973 121.859 26.432C121.588 26.3573 121.35 26.25 121.145 26.11C120.949 25.9607 120.79 25.7693 120.669 25.536C120.547 25.3027 120.487 25.018 120.487 24.682Z" fill="#34C759"/>
<path d="M139.7 28L142.388 18.004H140.232L138.594 24.892H138.566L136.858 18.004H134.8L133.064 24.808H133.036L131.454 18.004H129.256L131.902 28H134.128L135.794 21.196H135.822L137.516 28H139.7Z" fill="#34C759"/>
<path d="M145.501 18.004V28H147.699V18.004H145.501Z" fill="#34C759"/>
<path d="M153.942 19.852V28H156.14V19.852H159.136V18.004H150.946V19.852H153.942Z" fill="#34C759"/>
<path d="M169.053 21.364H171.181C171.115 20.7853 170.957 20.272 170.705 19.824C170.453 19.376 170.131 19.0027 169.739 18.704C169.356 18.396 168.917 18.1627 168.423 18.004C167.937 17.8453 167.419 17.766 166.869 17.766C166.103 17.766 165.413 17.9013 164.797 18.172C164.19 18.4427 163.677 18.816 163.257 19.292C162.837 19.768 162.515 20.328 162.291 20.972C162.067 21.6067 161.955 22.2973 161.955 23.044C161.955 23.772 162.067 24.4533 162.291 25.088C162.515 25.7133 162.837 26.2593 163.257 26.726C163.677 27.1927 164.19 27.5613 164.797 27.832C165.413 28.0933 166.103 28.224 166.869 28.224C167.485 28.224 168.049 28.1307 168.563 27.944C169.076 27.7573 169.524 27.4867 169.907 27.132C170.289 26.7773 170.597 26.348 170.831 25.844C171.064 25.34 171.209 24.7753 171.265 24.15H169.137C169.053 24.822 168.819 25.3633 168.437 25.774C168.063 26.1847 167.541 26.39 166.869 26.39C166.374 26.39 165.954 26.2967 165.609 26.11C165.263 25.914 164.983 25.6573 164.769 25.34C164.554 25.0227 164.395 24.668 164.293 24.276C164.199 23.8747 164.153 23.464 164.153 23.044C164.153 22.6053 164.199 22.1807 164.293 21.77C164.395 21.3593 164.554 20.9953 164.769 20.678C164.983 20.3513 165.263 20.0947 165.609 19.908C165.954 19.712 166.374 19.614 166.869 19.614C167.139 19.614 167.396 19.6607 167.639 19.754C167.891 19.838 168.115 19.9593 168.311 20.118C168.507 20.2767 168.67 20.4633 168.801 20.678C168.931 20.8833 169.015 21.112 169.053 21.364Z" fill="#34C759"/>
<path d="M174.866 18.004V28H177.064V23.688H181.11V28H183.308V18.004H181.11V21.84H177.064V18.004H174.866Z" fill="#34C759"/>
<path d="M187.343 18.004V28H194.931V26.152H189.541V23.702H194.385V21.994H189.541V19.852H194.819V18.004H187.343Z" fill="#34C759"/>
<path d="M200.719 22.526V19.712H203.127C203.631 19.712 204.009 19.824 204.261 20.048C204.513 20.2627 204.639 20.6127 204.639 21.098C204.639 21.602 204.513 21.966 204.261 22.19C204.009 22.414 203.631 22.526 203.127 22.526H200.719ZM198.521 18.004V28H200.719V24.094H202.917C203.467 24.094 203.864 24.2153 204.107 24.458C204.349 24.7007 204.508 25.0833 204.583 25.606C204.639 26.0073 204.681 26.4273 204.709 26.866C204.737 27.3047 204.811 27.6827 204.933 28H207.131C207.028 27.86 206.949 27.692 206.893 27.496C206.846 27.2907 206.809 27.076 206.781 26.852C206.762 26.628 206.748 26.4087 206.739 26.194C206.729 25.9793 206.72 25.7927 206.711 25.634C206.692 25.382 206.655 25.13 206.599 24.878C206.552 24.626 206.473 24.3973 206.361 24.192C206.249 23.9773 206.104 23.7953 205.927 23.646C205.749 23.4873 205.525 23.3707 205.255 23.296V23.268C205.815 23.044 206.216 22.7173 206.459 22.288C206.711 21.8587 206.837 21.35 206.837 20.762C206.837 20.3793 206.767 20.0247 206.627 19.698C206.496 19.362 206.3 19.068 206.039 18.816C205.787 18.564 205.479 18.368 205.115 18.228C204.76 18.0787 204.359 18.004 203.911 18.004H198.521Z" fill="#34C759"/>
<g clip-path="url(#clip0_18_21)">
<path d="M17.0984 15.1649H7.90162C3.53781 15.1649 0 18.7087 0 23.0817C0 27.4547 3.53781 31 7.90162 31H17.0984C21.4622 31 25 27.4547 25 23.0817C25 18.7087 21.4622 15.1649 17.0984 15.1649ZM16.9261 30.0921C13.0637 30.0921 9.93201 26.9537 9.93201 23.0832C9.93201 19.2127 13.0637 16.0744 16.9261 16.0744C20.7885 16.0744 23.9202 19.2127 23.9202 23.0832C23.9202 26.9537 20.7885 30.0921 16.9261 30.0921Z" fill="#34C759"/>
<path d="M16.0047 11.6844C16.0047 12.6817 16.2632 13.6173 16.7169 14.4281C14.5112 14.0474 12.833 12.1206 12.833 9.80075C12.833 9.50942 12.8592 9.22426 12.9115 8.9468C13.3422 8.81578 13.8005 8.74487 14.2743 8.74487C15.0895 8.74487 15.8571 8.95451 16.5246 9.32137C16.1909 10.0397 16.0047 10.8397 16.0047 11.6844Z" fill="#34C759"/>
<path d="M22.2067 9.80077C22.2067 11.9202 20.8069 13.7114 18.8827 14.2956C18.552 14.3958 18.2074 14.462 17.849 14.4852H17.8475C17.2676 13.7037 16.9246 12.7341 16.9246 11.6844C16.9246 11.0339 17.0568 10.4143 17.2953 9.8501C17.9674 8.26243 19.4856 7.12331 21.2838 7C21.8636 7.7815 22.2067 8.75106 22.2067 9.80077Z" fill="#34C759"/>
</g>
<defs>
<clipPath id="clip0_18_21">
<rect width="25" height="24" fill="white" transform="translate(0 7)"/>
</clipPath>
</defs>
</svg>
